<svg viewBox="0 0 467 454" fill="none" xmlns="http://www.w3.org/2000/svg">
    <g id="Frame">
        <g id="BottomBread">
            <g id="bottomCrust1">
                <path  d="M311.762 377.121C303.304 391.621 100.762 327.122 76.762 316.622C67.2698 312.469 61.0624 305.578 58.0783 296.909C58.0519 296.833 58.0258 296.756 58 296.679C57.4837 295.145 57.0678 293.555 56.7517 291.916C53.6345 311.334 60.1949 327.873 76.7619 335.122C100.762 345.622 303.304 410.121 311.762 395.621L311.762 377.121Z" />
            </g>
            <g id="bottomFill">
                <path  d="M118.124 185.538C118.406 187.409 118.755 189.252 119.153 191.05C120.478 197.03 122.346 202.514 124.082 206.894C126.555 213.127 128.762 217.121 128.762 217.121C127.774 213.987 126.039 210.654 124.24 207.197C124.188 207.096 124.135 206.995 124.082 206.894C121.512 201.953 120.149 196.172 119.153 191.05C118.933 189.917 118.731 188.816 118.538 187.764C118.396 186.994 118.26 186.25 118.124 185.538Z"/>
                <path fill-rule="evenodd" clip-rule="evenodd" d="M58 296.679C57.4837 295.145 57.0678 293.555 56.7517 291.916C56.5452 290.845 56.3813 289.753 56.26 288.642C55.6047 282.638 56.1897 276.057 58.0001 269.13C58.0302 269.015 58.0606 268.899 58.0914 268.784C56.2095 275.838 55.5938 282.538 56.26 288.642C56.3813 289.753 56.5452 290.845 56.7517 291.916C57.0678 293.555 57.4837 295.145 58 296.679ZM372.366 266.357C372.351 266.386 372.335 266.415 372.319 266.444L372.366 266.357ZM126.597 148.822C126.27 149.277 125.946 149.739 125.623 150.207C125.593 150.252 125.562 150.296 125.532 150.34C125.885 149.826 126.24 149.32 126.597 148.822ZM118.124 185.538C118.406 187.409 118.755 189.252 119.153 191.05C118.933 189.917 118.731 188.816 118.538 187.764C118.396 186.994 118.26 186.25 118.124 185.538Z" />
                <path d="M76.762 316.622C100.762 327.122 303.304 391.621 311.762 377.121C317.223 367.76 345.978 314.883 372.319 266.444L372.366 266.357C384.216 244.567 395.574 223.681 404.099 208.066C405.964 204.651 407.693 201.487 409.262 198.621C420.762 177.621 239 141.371 197.762 131.121C189.345 129.029 181.864 127.75 175.16 127.246C174.976 127.232 174.792 127.219 174.609 127.206C168.194 126.763 162.496 127.038 157.372 128C144.069 130.498 134.64 137.627 126.597 148.822C126.27 149.277 125.946 149.739 125.623 150.207L125.532 150.34C124.653 151.622 123.789 152.954 122.938 154.335C122.879 154.43 122.821 154.526 122.762 154.621C117.069 163.921 116.562 175.165 118.124 185.538C118.26 186.25 118.396 186.994 118.538 187.764C118.731 188.816 118.933 189.917 119.153 191.05C120.478 197.03 122.346 202.514 124.082 206.894L124.24 207.197C126.039 210.654 127.774 213.987 128.762 217.121C115.268 218.827 79.4803 225.678 66.7621 248.121C62.758 255.187 59.8634 262.142 58.0914 268.784C58.0606 268.899 58.0302 269.015 58.0001 269.13C56.1897 276.057 55.6047 282.638 56.26 288.642C56.3813 289.753 56.5452 290.845 56.7517 291.916C57.0678 293.555 57.4837 295.145 58 296.679C58.0258 296.756 58.0519 296.833 58.0783 296.909C61.0624 305.578 67.2698 312.469 76.762 316.622Z" />
            </g>
            <g id="bottomCrust2">
                <path  d="M311.762 395.621C320.22 381.121 384.563 262.224 409.262 217.121L409.262 213.148L409.262 198.621C407.693 201.487 405.964 204.651 404.099 208.066C395.574 223.681 384.216 244.567 372.366 266.357C372.351 266.386 372.335 266.415 372.319 266.444C345.978 314.883 317.223 367.76 311.762 377.121L311.762 395.621Z" />
            </g>
            <path d="M311.762 377.121C303.304 391.621 100.762 327.122 76.762 316.622C67.2698 312.469 61.0624 305.578 58.0783 296.909C58.0519 296.833 58.0258 296.756 58 296.679C57.4837 295.145 57.0678 293.555 56.7517 291.916M311.762 377.121L311.762 395.621M311.762 377.121C317.223 367.76 345.978 314.883 372.319 266.444M128.762 217.121C115.268 218.827 79.4803 225.678 66.7621 248.121C62.758 255.187 59.8634 262.142 58.0914 268.784M128.762 217.121C128.762 217.121 126.555 213.127 124.082 206.894M128.762 217.121C127.774 213.987 126.039 210.654 124.24 207.197M409.262 198.621C420.762 177.621 239 141.371 197.762 131.121C189.345 129.029 181.864 127.75 175.16 127.246C174.976 127.232 174.792 127.219 174.609 127.206C168.194 126.763 162.496 127.038 157.372 128C144.069 130.498 134.64 137.627 126.597 148.822M409.262 198.621L409.262 213.148M409.262 198.621C407.693 201.487 405.964 204.651 404.099 208.066C395.574 223.681 384.216 244.567 372.366 266.357M311.762 395.621C303.304 410.121 100.762 345.622 76.7619 335.122C60.1949 327.873 53.6345 311.334 56.7517 291.916M311.762 395.621C320.22 381.121 384.563 262.224 409.262 217.121M56.7517 291.916C56.5452 290.845 56.3813 289.753 56.26 288.642M409.262 217.121L409.262 213.148M409.262 217.121C409.965 215.838 409.939 214.511 409.262 213.148M118.124 185.538C116.562 175.165 117.069 163.921 122.762 154.621C122.821 154.526 122.879 154.43 122.938 154.335C123.789 152.954 124.653 151.622 125.532 150.34M118.124 185.538C118.26 186.25 118.396 186.994 118.538 187.764C118.731 188.816 118.933 189.917 119.153 191.05M118.124 185.538C118.406 187.409 118.755 189.252 119.153 191.05M124.082 206.894C122.346 202.514 120.478 197.03 119.153 191.05M124.082 206.894C121.512 201.953 120.149 196.172 119.153 191.05M124.082 206.894L124.24 207.197M124.082 206.894C124.135 206.995 124.188 207.096 124.24 207.197M58.0914 268.784C58.0606 268.899 58.0302 269.015 58.0001 269.13C56.1897 276.057 55.6047 282.638 56.26 288.642M58.0914 268.784C56.2095 275.838 55.5938 282.538 56.26 288.642M372.319 266.444L372.366 266.357M372.319 266.444C372.335 266.415 372.351 266.386 372.366 266.357M126.597 148.822C126.27 149.277 125.946 149.739 125.623 150.207M126.597 148.822C126.24 149.32 125.885 149.826 125.532 150.34M125.623 150.207C125.593 150.252 125.562 150.296 125.532 150.34M125.623 150.207L125.532 150.34"/>
        </g>
        <path id="Cheese1" d="M198 145L105 285.5L134 297L166 311L198 324.5L233.5 341L259 351.5L291.5 363L377.5 213.5L198 145Z" fill="#F7B840" stroke="#8E6E1B"/>
        <path id="Cheese2" d="M199.32 142C199.32 142 54.4025 301.5 63.4025 319C72.4025 336.5 86.4025 321.5 95.9025 334.5C105.402 347.5 135.82 342.5 135.82 342.5C135.82 342.5 154.82 355 172.82 355C190.82 355 190.82 369 207.32 365C223.82 361 231.82 379.5 254.82 379.5C276.303 379.5 294.32 400.5 308.82 390C323.32 379.5 393.82 211 393.82 211L199.32 142Z" fill="#F7B840" stroke="#8E6E1B"/>
        <g id="TopBread">
            <g id="topCrust1">
                <path d="M311.762 357.121C303.304 371.621 100.762 307.122 76.762 296.622C67.2698 292.469 61.0624 285.578 58.0783 276.909C58.0519 276.833 58.0258 276.756 58 276.679C57.4837 275.145 57.0678 273.555 56.7517 271.916C53.6345 291.334 60.1949 307.873 76.7619 315.122C100.762 325.622 303.304 390.121 311.762 375.621L311.762 357.121Z" />
            </g>
            <g id="topFill">
                <path d="M118.124 165.538C118.406 167.409 118.755 169.252 119.153 171.05C120.478 177.03 122.346 182.514 124.082 186.894C126.555 193.127 128.762 197.121 128.762 197.121C127.774 193.987 126.039 190.654 124.24 187.197C124.188 187.096 124.135 186.995 124.082 186.894C121.512 181.953 120.149 176.172 119.153 171.05C118.933 169.917 118.731 168.816 118.538 167.764C118.396 166.994 118.26 166.25 118.124 165.538Z" />
                <path fill-rule="evenodd" clip-rule="evenodd" d="M58 276.679C57.4837 275.145 57.0678 273.555 56.7517 271.916C56.5452 270.845 56.3813 269.753 56.26 268.642C55.6047 262.638 56.1897 256.057 58.0001 249.13C58.0302 249.015 58.0606 248.899 58.0914 248.784C56.2095 255.838 55.5938 262.538 56.26 268.642C56.3813 269.753 56.5452 270.845 56.7517 271.916C57.0678 273.555 57.4837 275.145 58 276.679ZM372.366 246.357C372.351 246.386 372.335 246.415 372.319 246.444L372.366 246.357ZM126.597 128.822C126.27 129.277 125.946 129.739 125.623 130.207C125.593 130.252 125.562 130.296 125.532 130.34C125.885 129.826 126.24 129.32 126.597 128.822ZM118.124 165.538C118.406 167.409 118.755 169.252 119.153 171.05C118.933 169.917 118.731 168.816 118.538 167.764C118.396 166.994 118.26 166.25 118.124 165.538Z" />
                <path d="M76.762 296.622C100.762 307.122 303.304 371.621 311.762 357.121C317.223 347.76 345.978 294.883 372.319 246.444L372.366 246.357C384.216 224.567 395.574 203.681 404.099 188.066C405.964 184.651 407.693 181.487 409.262 178.621C420.762 157.621 239 121.371 197.762 111.121C189.345 109.029 181.864 107.75 175.16 107.246C174.976 107.232 174.792 107.219 174.609 107.206C168.194 106.763 162.496 107.038 157.372 108C144.069 110.498 134.64 117.627 126.597 128.822C126.27 129.277 125.946 129.739 125.623 130.207L125.532 130.34C124.653 131.622 123.789 132.954 122.938 134.335C122.879 134.43 122.821 134.526 122.762 134.621C117.069 143.921 116.562 155.165 118.124 165.538C118.26 166.25 118.396 166.994 118.538 167.764C118.731 168.816 118.933 169.917 119.153 171.05C120.478 177.03 122.346 182.514 124.082 186.894L124.24 187.197C126.039 190.654 127.774 193.987 128.762 197.121C115.268 198.827 79.4803 205.678 66.7621 228.121C62.758 235.187 59.8634 242.142 58.0914 248.784C58.0606 248.899 58.0302 249.015 58.0001 249.13C56.1897 256.057 55.6047 262.638 56.26 268.642C56.3813 269.753 56.5452 270.845 56.7517 271.916C57.0678 273.555 57.4837 275.145 58 276.679C58.0258 276.756 58.0519 276.833 58.0783 276.909C61.0624 285.578 67.2698 292.469 76.762 296.622Z" />
            </g>
            <g id="topCrust2">
                <path  d="M311.762 375.621C320.22 361.121 384.563 242.224 409.262 197.121L409.262 193.148L409.262 178.621C407.693 181.487 405.964 184.651 404.099 188.066C395.574 203.681 384.216 224.567 372.366 246.357C372.351 246.386 372.335 246.415 372.319 246.444C345.978 294.883 317.223 347.76 311.762 357.121L311.762 375.621Z" />
            </g>
            <path d="M311.762 357.121C303.304 371.621 100.762 307.122 76.762 296.622C67.2698 292.469 61.0624 285.578 58.0783 276.909C58.0519 276.833 58.0258 276.756 58 276.679C57.4837 275.145 57.0678 273.555 56.7517 271.916M311.762 357.121L311.762 375.621M311.762 357.121C317.223 347.76 345.978 294.883 372.319 246.444M128.762 197.121C115.268 198.827 79.4803 205.678 66.7621 228.121C62.758 235.187 59.8634 242.142 58.0914 248.784M128.762 197.121C128.762 197.121 126.555 193.127 124.082 186.894M128.762 197.121C127.774 193.987 126.039 190.654 124.24 187.197M409.262 178.621C420.762 157.621 239 121.371 197.762 111.121C189.345 109.029 181.864 107.75 175.16 107.246C174.976 107.232 174.792 107.219 174.609 107.206C168.194 106.763 162.496 107.038 157.372 108C144.069 110.498 134.64 117.627 126.597 128.822M409.262 178.621L409.262 193.148M409.262 178.621C407.693 181.487 405.964 184.651 404.099 188.066C395.574 203.681 384.216 224.567 372.366 246.357M311.762 375.621C303.304 390.121 100.762 325.622 76.7619 315.122C60.1949 307.873 53.6345 291.334 56.7517 271.916M311.762 375.621C320.22 361.121 384.563 242.224 409.262 197.121M56.7517 271.916C56.5452 270.845 56.3813 269.753 56.26 268.642M409.262 197.121L409.262 193.148M409.262 197.121C409.965 195.838 409.939 194.511 409.262 193.148M118.124 165.538C116.562 155.165 117.069 143.921 122.762 134.621C122.821 134.526 122.879 134.43 122.938 134.335C123.789 132.954 124.653 131.622 125.532 130.34M118.124 165.538C118.26 166.25 118.396 166.994 118.538 167.764C118.731 168.816 118.933 169.917 119.153 171.05M118.124 165.538C118.406 167.409 118.755 169.252 119.153 171.05M124.082 186.894C122.346 182.514 120.478 177.03 119.153 171.05M124.082 186.894C121.512 181.953 120.149 176.172 119.153 171.05M124.082 186.894L124.24 187.197M124.082 186.894C124.135 186.995 124.188 187.096 124.24 187.197M58.0914 248.784C58.0606 248.899 58.0302 249.015 58.0001 249.13C56.1897 256.057 55.6047 262.638 56.26 268.642M58.0914 248.784C56.2095 255.838 55.5938 262.538 56.26 268.642M372.319 246.444L372.366 246.357M372.319 246.444C372.335 246.415 372.351 246.386 372.366 246.357M126.597 128.822C126.27 129.277 125.946 129.739 125.623 130.207M126.597 128.822C126.24 129.32 125.885 129.826 125.532 130.34M125.623 130.207C125.593 130.252 125.562 130.296 125.532 130.34M125.623 130.207L125.532 130.34" />
        </g>
    </g>
    <defs>
        <radialGradient id="radialGradient" cx="0" cy="0" r="1" gradientUnits="userSpaceOnUse" gradientTransform="translate(232.892 242.367) rotate(90) scale(135.367 176.892)">
            <stop stop-color="#8A7448"/>
            <stop offset="1" stop-color="#DCBD82"/>
        </radialGradient>
    </defs>
</svg>
